<?xml version="1.0" encoding="UTF-8"?>
<svg id="Layer_2" xmlns="http://www.w3.org/2000/svg" viewBox="0 0 2409.57 2500">
  <defs>
    <style>
      .cls-1 {
        fill: #fff;
      }
    </style>
  </defs>
  <g id="Layer_1-2" data-name="Layer_1">
    <g>
      <path class="cls-1" d="M2037.16,324.04l28.12,29.04c-10.24-10.92-21.24-22.16-28.12-29.04Z"/>
      <path class="cls-1" d="M1924.95,224.21c-2.09-1.65-4.19-3.29-6.29-4.93-3.69-2.87-8.26-6.38-9.04-6.79.69.86,30.59,24.37,31.99,25.16-.69-.62-6.46-5.37-16.66-13.44Z"/>
      <path class="cls-1" d="M2408.78,1169.2h0l-2.07-36.39c-3.32-44.51-5.06-45.41-6.1-45.94-4.41,5.54,2.1,118.67,7.41,128.78.19-.07.45-.16.65-.23,1.17-4.3,1.21-19.85.12-46.22Z"/>
      <path class="cls-1" d="M2396.7,1403.18c.54-1.45,1.56-4.15,3.99-24.12h0s7.24-81.9,7.24-81.9c1.27-22.66.51-25.38.22-26.4-7.6,3.1-12.37,131.51-11.45,132.41Z"/>
      <path class="cls-1" d="M2358.49,1581.84c.86-1.25,1.25-1.82,4.24-12.32,8.42-29.84,16.7-70.39,23.82-100.57,1.97-10.29,2.11-12.36,2.25-14.37-.17-.19-.4-.44-.57-.63-6.62,14.34-31.08,119.52-29.74,127.88Z"/>
      <path class="cls-1" d="M2297.67,1748.52l36.55-90.07,6.46-18.28c1.74-5.08,1.76-5.46,1.81-6.39-4.8,5.85-47.19,113.4-46.76,118.64.54-.88.73-1.29,1.95-3.91Z"/>
      <path class="cls-1" d="M2247.46,1847.94l25.67-48.12c.13-.33.31-.77.44-1.1-4.51,6.63-56.16,97.93-60.08,106.18l33.97-56.97Z"/>
      <path class="cls-1" d="M2383.41,964.8c-.63-3.01-1.26-6.02-1.91-9.02-6.31-29.06-10.88-45.02-13.61-47.44-4,6.99,17.71,112.45,24.71,120.05,2.5-4.07-4.68-41.59-9.19-63.59Z"/>
      <path class="cls-1" d="M2131.02,2020.61h0l18.73-25.09c-11.93,15.75-24.5,32.1-32.89,42.44l14.16-17.34Z"/>
      <path class="cls-1" d="M2116.86,2037.96l-1.65,2.02c.53-.65,1.08-1.32,1.65-2.02Z"/>
      <path class="cls-1" d="M2182.34,1951.87l-32.59,43.65c15.37-20.28,29.68-39.56,32.59-43.65Z"/>
      <path class="cls-1" d="M2349.89,844.8c.44-8.16-12.94-45.7-17.05-57.01-1.05-2.86-2.12-5.73-3.2-8.58h0c-3.22-8.48-14.06-36.48-18.38-40.51-.19.04-.43.09-.62.13-3.13,6.13,29.18,95.37,38.41,106.1.25-.03.58-.08.83-.12Z"/>
      <path class="cls-1" d="M2053.71,2108.64l-23.56,23.84c4.33-4.29,12.4-12.28,23.56-23.84Z"/>
      <path class="cls-1" d="M2281.67,675.66c.23-.07.53-.17.76-.25.2-3.97-8.58-23.43-21.86-48.43-1.18-2.19-2.36-4.38-3.57-6.56-7.04-12.76-19.48-34.37-23.73-35.79-1.88,6.76,39.74,85.03,48.4,91.02Z"/>
      <path class="cls-1" d="M2191.29,518.81c.09-.07.22-.16.31-.23.13-3.32-9.4-18.71-24.28-39.19-1.74-2.36-3.48-4.72-5.25-7.05-4.72-6.24-20.46-26.62-24.63-27.14-2.55,4.24,46.77,71.67,53.85,73.62Z"/>
      <path class="cls-1" d="M2080.03,377.96c.56-1.7-6.8-11.82-24.28-30.02-1.36-1.39-2.72-2.77-4.09-4.14-13.93-13.87-23.51-21.81-26.28-21.8-1.85,3.76,48.72,55.54,54.65,55.96Z"/>
      <path class="cls-1" d="M1945.49,251.39c.03-1.85-8.82-10.04-21.53-19.91-1.13-.86-2.26-1.72-3.4-2.57-9.59-7.12-21-14.56-23.39-14.06-.66,3.6,44.51,37.75,48.32,36.53Z"/>
      <path class="cls-1" d="M1794.66,147.9c.03-.59-2.78-3.33-13.67-9.51l-1.39-.77c-1.4-.77-13.76-7.5-16.08-6.91-.59,2.06,27.94,17.81,31.15,17.19Z"/>
      <path class="cls-1" d="M2384.19,1268.81c-18.61-1.75-32.73,129.32-15.74,146.09,7.64,7.54,19.36-20.57,23.98-72.96.23-2.85.71-8.79,1.07-16.67h0c1.25-26.61-1.96-55.76-9.32-56.45Z"/>
      <path class="cls-1" d="M2366.22,1454.13c-17.08-1.02-48.33,123.13-35.2,139.83,6.05,7.69,21.5-20.61,33.14-70,.84-3.7,2.25-9.9,3.87-18.59h0c5.47-29.3,4.7-50.85-1.81-51.24Z"/>
      <path class="cls-1" d="M2315.49,1685.02c9.32-26.35,12.64-47.29,7.92-49.8-13.46-7.13-61.66,106.82-54.29,128.34,3.33,9.73,22.43-16.85,41.15-64.44,1.01-2.62,2.89-7.5,5.22-14.1Z"/>
      <path class="cls-1" d="M2341.36,911.54c-20.49,6.72,9.2,120.31,24.78,129.02,9.14,5.11,12.59-21.21,3.16-68.55-.55-2.61-1.24-5.85-2.4-10.54-.55-2.2-13.52-53.88-25.54-49.93Z"/>
      <path class="cls-1" d="M2393.27,1141.99c-3.38-33.18-10.7-56.35-17.81-56.35-19.43,0-15.29,123.76,4.71,140.88,10.07,8.62,16.51-24.71,14.06-72.8-.14-2.15-.44-6.62-.96-11.74Z"/>
      <path class="cls-1" d="M2240.38,1849.03c11.64-22.14,21.18-45.42,16.26-47.51-11.95-5.09-73.63,100.73-67.35,115.53,2.59,6.1,21.04-14.81,46.33-59.23.89-1.61,2.74-4.95,4.76-8.79Z"/>
      <path class="cls-1" d="M2147.62,1993.98c13.69-19.06,26.04-39.57,20.83-39.57-4.92,0-23.36,19.54-42.9,45.44-1.52,2.01-37.14,49.37-32.83,54.97,4.8.38,25.67-22.07,48.56-52.22,1.59-2.13,3.57-4.77,6.34-8.62Z"/>
      <path class="cls-1" d="M2324.15,857.2c7.09,2.94,11.76-11.12-5.92-61.34-.88-2.38-2.09-5.65-3.95-10.19-13.53-32.98-26.26-47.03-31.38-43.51-13.29,9.15,21.79,106.98,41.25,115.04Z"/>
      <path class="cls-1" d="M1980.5,2174.42c3.6.3,27.8-21.61,49.12-42.96,2.4-2.43,4.8-4.87,7.17-7.33h0c8.1-8.43,26.85-28.45,25.96-32.37-6.95-1.16-81.51,73.77-82.25,82.66Z"/>
      <path class="cls-1" d="M2258.84,688.1c7.82,1.54,4.87-17.89-13.6-53.08-.83-1.54-2.57-4.75-4.87-8.65h0c-14.91-25.28-29.44-41.13-34.54-37.68-11.43,7.73,35.64,95.99,53.01,99.4Z"/>
      <path class="cls-1" d="M1853.48,2277.52c2.51-1.17,21.49-14.05,47.34-33.51,2.31-1.75,4.61-3.5,6.91-5.27h0c8.84-6.81,29.4-22.9,29.44-25.34-6.21,2.47-82.86,61.19-83.69,64.11Z"/>
      <path class="cls-1" d="M2169.85,531.27c6.54.53,1.16-16.12-18.93-43.95-.84-1.14-2.59-3.51-4.72-6.2h0c-18.86-23.92-33.64-35.04-37.04-31.97-8.78,7.94,45.1,80.84,60.69,82.12Z"/>
      <path class="cls-1" d="M1780.72,2323.69l-42.6,24.52c14.37-7.88,28.46-16.25,42.6-24.52Z"/>
      <path class="cls-1" d="M1801.52,2311.71s.12-.09.17-.12c-7.03,3.96-14,8.02-20.96,12.09l20.8-11.97Z"/>
      <path class="cls-1" d="M2058.64,389.16c8.16-.92-10.58-22.89-21.62-34.38-1.42-1.43-2.84-2.86-4.29-4.26-18.73-18.1-34.17-27.57-36.83-25.07-6.4,6.02,51.66,64.96,62.75,63.7Z"/>
      <path class="cls-1" d="M1924.99,262.01c3.76-1.64-8.09-13.18-21.74-23.75-1.29-.98-2.59-1.95-3.91-2.9h0c-18.29-13.21-33.59-20.22-34.06-17.22-1.1,7,53.04,46.76,59.71,43.86Z"/>
      <path class="cls-1" d="M1774.57,158.19c2.17-.46-3.67-6.06-18.1-14.15-.97-.53-1.94-1.06-2.91-1.57h0c-11.05-5.82-24.34-11.28-26.56-9.94-.23,5.27,44.03,26.41,47.58,25.66Z"/>
      <path class="cls-1" d="M2352.14,1345c.18-2.45.5-7.01.56-12.85.21-21.73-4.08-63.2-21.79-64.59-32.22-2.52-51.03,120.15-23.39,152.62,15.26,17.93,38.57-11.61,44.63-75.18Z"/>
      <path class="cls-1" d="M2325.44,1527.88c.57-2.65,1.52-7.1,2.37-12.8,4.13-27.59,2.54-57.18-10.31-61.11-30.47-9.31-68.81,108.42-47.15,144.8,12.27,20.6,40.1-8.06,55.09-70.88Z"/>
      <path class="cls-1" d="M2273.15,1704.74c.77-2.08,2.19-5.96,3.71-10.91,8.26-26.97,10.82-55.41-2.05-58.16-28.16-6.02-79.06,104.12-62.6,135.46,8.97,17.08,38.85-10.2,60.94-66.39Z"/>
      <path class="cls-1" d="M2351.61,1147.42h0c-4.66-40.4-19.17-62.32-30.46-62.43-31.69-.31-33.46,116.18-2.22,146.65,15.81,15.42,36.8-5.26,33.7-72.77-.2-2.76-.49-6.92-1.01-11.45Z"/>
      <path class="cls-1" d="M2200.17,1864.68c1.55-2.94,4.44-8.4,7.7-15.54,10.43-22.87,12.61-42.07,5.2-45.67-21.84-10.59-87.37,91.04-77.06,119.5,5.09,14.04,33.27-2.05,64.16-58.29Z"/>
      <path class="cls-1" d="M2307.49,1047.97c16.31,10.49,31.77-11.35,19.89-70.76-.78-3.65-1.58-7.43-2.94-12.52-.15-.57-15.4-56.7-38.19-52.06-28.2,5.74-11.13,114.53,21.23,135.35Z"/>
      <path class="cls-1" d="M2117.1,1997.98c11.88-18.19,17.69-34.78,13.81-39.44-13.29-15.96-87.66,70.44-86.49,100.48.58,14.96,29.92-1.4,64.96-49.81,1.6-2.25,4.59-6.44,7.72-11.24Z"/>
      <path class="cls-1" d="M2272.31,790.2c-7.44-17.13-25.67-48.85-41.44-46.27-28.59,4.69,8.71,105.06,36.27,120.93,15.99,9.2,28.81-7.59,10.17-62.03-1.38-3.75-2.69-7.3-5-12.63Z"/>
      <path class="cls-1" d="M2003.01,2137.39c1.9-2.03,5.07-5.42,8.46-9.31,13.24-15.22,20.67-28.42,18.06-32.1-8.77-12.34-89.75,64.79-89.34,85.08.18,8.92,26.64-5.49,62.82-43.67Z"/>
      <path class="cls-1" d="M2058.11,451.9c-13.62,9.96,37.64,81.59,63.05,88.1,15.06,3.85,10.5-17.56-9.96-46.76-1.05-1.43-3-4.1-5.57-7.26-19.31-23.83-40.63-39.12-47.53-34.07Z"/>
      <path class="cls-1" d="M2152.31,591.46c-16.93,11.2,26,94.84,54.04,105.29,13.2,4.91,21.8-9.31-1.64-55.45-1.19-2.23-3.19-5.95-6-10.61-18.64-30.86-38.6-44.39-46.39-39.23Z"/>
      <path class="cls-1" d="M1886.62,2244.92h0c16.99-14.27,26.47-25.28,23.6-27.4-7.75-5.72-89.73,57.55-87.71,67.7.94,4.74,28.86-12.2,57.46-34.85,2.23-1.8,4.46-3.61,6.65-5.45Z"/>
      <path class="cls-1" d="M1756.71,2335.73h0c6.16-3.76,26.25-16.29,26.2-19.61-6.41-2.28-81.94,45-83.82,49.12,2.97.99,31.99-14.44,50.92-25.49,2.24-1.32,4.48-2.66,6.71-4.02Z"/>
      <path class="cls-1" d="M1574.55,2421.92l29.72-11.34,27.46-11.28c8.81-3.78,13.63-6.04,14.32-6.74-2.52.51-12.36,4.69-31.96,13.03-16.79,7.14-27.82,11.8-39.55,16.32Z"/>
      <path class="cls-1" d="M2014.42,397.53c11.48,1.24,4.13-15.11-16.74-37.21-1.59-1.62-3.23-3.3-5.76-5.68h0c-19.33-18.24-40.55-30.7-45.4-26.66-9.9,8.24,47.84,67.39,67.89,69.56Z"/>
      <path class="cls-1" d="M1884.53,269.6c4.48-.6,2.7-8.15-20.55-26.5-1.18-.9-3.37-2.57-6.16-4.54h0c-19.31-13.66-38.91-22.44-41.12-18.42-4.53,8.26,54.43,51.24,67.83,49.46Z"/>
      <path class="cls-1" d="M1736.95,164.63c1.96-.85-1.83-6.14-20.3-16.68-1.42-.78-2.84-1.56-4.28-2.31-17.96-9.37-32.72-13.78-33.92-11.45-2.44,4.73,52.23,33.18,58.5,30.44Z"/>
      <path class="cls-1" d="M1569.29,82.15c.07-1.42-7.01-4.64-13.67-7.18-.99-.37-1.98-.73-2.98-1.09-11.86-4.18-20.18-5.91-21.38-5.16-.01,2.72,34.82,15.02,38.03,13.43Z"/>
      <path class="cls-1" d="M2237.37,1449.46c-44.79-12.88-90.86,104.81-59.39,151.72,19.64,29.27,62.42.4,79.27-69.24.76-3.69,1.32-6.91,1.67-9.59h0c5.82-44.16-7.09-68.74-21.56-72.9Z"/>
      <path class="cls-1" d="M2283.19,1161.7c-.13-2.08-.41-6.4-1.18-11.77h0c-6.07-42.13-26.67-66.3-42.98-67.65-38.86-3.21-57.63,106.25-13.2,150.52,29.48,29.37,59.5-7.84,57.36-71.1Z"/>
      <path class="cls-1" d="M2283.06,1333c-.45-32.69-12.58-67.24-34.89-70.02-45.08-5.63-71.59,111.28-35.46,156.36,24.54,30.62,62.87.62,69.95-73.2.18-2.76.47-7.39.39-13.14Z"/>
      <path class="cls-1" d="M2198.58,1633.88c-38.97-12.82-97.98,89.73-77.94,135.47,14.31,32.66,60.67,7.91,86.73-61.2.83-2.41,2.21-6.43,3.53-11.47h0c6.82-26.05,5.87-56.82-12.31-62.8Z"/>
      <path class="cls-1" d="M2051.03,2014.89c1.32-1.98,3.32-4.98,5.61-9.01,13.49-23.71,15.7-41.34,5.91-47.15-22.79-13.55-100.61,59.01-95.57,101.62,3.08,26.03,47.06,6.91,84.05-45.46Z"/>
      <path class="cls-1" d="M2203.4,909.79c-37.99,7.87-27.4,112.16,14.34,141.24,27.13,18.91,51.54-9.29,41.35-69.16-.25-1.28-.92-4.67-2.05-8.93h0c-10.11-38.16-34.67-67.08-53.64-63.15Z"/>
      <path class="cls-1" d="M2136.06,1871.16c1.9-3.82,5.08-10.21,9.11-20.2,6.2-15.35,9.11-40.07-3.83-46.97-33.15-17.67-104.94,77.58-90.38,119.91,8.61,25.03,53.02,8.76,85.09-52.75Z"/>
      <path class="cls-1" d="M2202.2,787.73h0c-9.6-21.57-37.96-55.1-57.94-42.29-24.06,15.42.56,107.24,42.28,125.84,21.11,9.4,41.61-7.92,23.46-63.85-1.34-3.83-3.59-10.25-7.8-19.7Z"/>
      <path class="cls-1" d="M1961.03,2129.63h0c5.21-6.96,14.65-24.31,8.76-30.49-17.15-17.98-100.88,54.57-97.38,84.38,1.88,16.03,37.14,4.65,77.04-39.64,2.3-2.64,6.58-7.57,11.58-14.26Z"/>
      <path class="cls-1" d="M2132.69,632.64c-18.15-29.86-44-45.97-55.84-41.75-27.24,9.7,15.47,99.45,53.13,111.67,18.67,6.06,32.52-10.35,9.95-56.92-1.45-2.82-3.64-7.09-7.24-13Z"/>
      <path class="cls-1" d="M1834.54,2256.71c2.29-2,6.11-5.34,11.08-10.19.77-.75,18.71-18.39,13.87-25.25-9.8-13.89-90.85,43.74-93.25,66.31-1.5,14.11,34.88-2.33,68.29-30.87Z"/>
      <path class="cls-1" d="M2043.24,488.94c-24-29.86-51.41-43.68-58.98-35.64-15.27,16.23,39.22,89.13,69.41,92.87,13.18,1.63,18.93-14.63-4.55-49.39-1.17-1.65-3.13-4.42-5.88-7.84Z"/>
      <path class="cls-1" d="M1721.76,2341.22h0c13.42-9.34,21.56-17.66,20.25-20.68-4.19-9.73-83.16,35.77-86.22,49.67-1.61,7.33,29.21-5.5,59.96-24.96,1.39-.9,3.49-2.27,6.02-4.03Z"/>
      <path class="cls-1" d="M1931.95,356.94c-21.19-20.28-47.35-34.07-53.84-28.38-13.3,11.68,46.82,72.58,73.1,74.04,9.18.51,13.95-9.53-12.33-38.66-1.39-1.47-3.72-3.93-6.93-7.01Z"/>
      <path class="cls-1" d="M1596.98,2409.85h0c7.56-3.58,20.29-10,20.55-12.81-5.74-2.25-73.64,27.51-76.48,33.52,2.49.72,25.65-7.25,49.11-17.58,2.28-1.02,4.56-2.06,6.82-3.13Z"/>
      <path class="cls-1" d="M1752.97,219.73c-6.95,10.32,56.09,56.79,73.31,54.05,4.66-.74,6.77-7.61-18.63-28.28-1.73-1.36-3.88-3.05-7.33-5.52-19.6-14.07-44.38-24.67-47.35-20.25Z"/>
      <path class="cls-1" d="M1454.23,2459.32l34.96-9.56q-.57-.02-34.96,9.56Z"/>
      <path class="cls-1" d="M1650.37,156.51c9.21,4.79,27.98,13.29,33.05,11.16,2.36-.99-1.04-6.76-20.25-18.03-1.44-.82-2.88-1.63-4.34-2.41h0c-19.42-10.4-40.31-17.4-41.39-13.88-1.21,3.93,21.67,17.29,32.93,23.15Z"/>
      <path class="cls-1" d="M1520.5,84.21c-.25-1.45-6.45-4.69-16.58-8.69-1.17-.45-2.35-.89-3.53-1.32-10.71-3.89-26.45-8.51-27.9-6.64,1.34,3.96,45.31,19.21,48,16.65Z"/>
      <path class="cls-1" d="M2188.69,1335.83c-.98-55.01-29.22-77.96-47.97-79.97-58.33-6.25-92.32,105-48.49,158.72,32.17,39.43,87.33,10.86,96.14-68.12.12-1.75.41-5.86.32-10.62Z"/>
      <path class="cls-1" d="M2130.84,1441.44c-55.7-15.79-110.67,95.09-75.4,152.1,29.5,47.7,91.38,11.96,108.54-62.69.45-2.37,1.4-7.29,1.89-13.3,3.18-39.3-10.57-69.17-35.03-76.11Z"/>
      <path class="cls-1" d="M2189.35,1161.33c-.13-2.34-.37-6.7-1.25-12.32h0c-6.48-41.39-31.61-72.48-58.46-72.32-52.78.31-68.72,106.96-22.74,152.15,38.31,37.65,83.78.43,82.45-67.51Z"/>
      <path class="cls-1" d="M2115.89,1709.31c.96-3.01,2.57-8.04,3.86-14.38,8.22-40.35-7.98-61.17-24.35-66.74-50.52-17.19-117.41,80.18-92.96,135.3,21.53,48.53,88.32,16.63,113.44-54.18Z"/>
      <path class="cls-1" d="M2049.99,1870.59c.82-1.77,2.74-5.91,4.33-10.66,11.91-35.39.66-54.38-12.59-59.89-45.56-18.94-120.89,67.48-103.33,118.55,13.53,39.34,76.84,20.09,111.59-48Z"/>
      <path class="cls-1" d="M2164.41,970.02c-12.59-42.91-42.82-67.16-63.6-65.03-49.7,5.1-47.18,107.51,3.54,144.18,35.32,25.53,72.03-.84,62.92-66.89-.4-2.17-1.23-6.7-2.86-12.26Z"/>
      <path class="cls-1" d="M1968.22,2017.02c1.23-2.02,3.1-5.06,5.09-9.19,16.4-33.98,2.98-46.52-1.53-49.55-30.52-20.54-118.47,47.68-108.92,98.19,6.63,35.07,66.56,18.7,105.36-39.45Z"/>
      <path class="cls-1" d="M2048.91,740.39c-39.62,10.54-19.68,100.92,28.44,128.94,33,19.22,60.06-5.63,44.59-62.04-.49-1.53-1.52-4.72-3.15-8.67h0c-15.72-38.18-47.07-64.3-69.88-58.23Z"/>
      <path class="cls-1" d="M1874.38,2146.12c1.07-1.35,3.31-4.17,5.53-7.57,17.86-27.31,8.3-37.55,4.95-40.04-27.8-20.63-111.33,43.34-106.39,81.49,3.49,26.95,56.47,13.21,95.92-33.88Z"/>
      <path class="cls-1" d="M2031.77,702.88c27.76,10.57,44.25-12.2,23.92-57.39-.99-2.06-2.65-5.5-5.16-9.8h0c-19.89-34.07-52.21-53.19-67.81-47.52-32.57,11.83,4.11,97.59,49.06,114.71Z"/>
      <path class="cls-1" d="M1769.88,2258.18c1.3-1.27,4.01-3.91,6.89-7.2,6.06-6.91,15.51-21.77,7.96-28.59-18.48-16.7-98.25,34.43-99.26,63.61-.64,18.58,41.66,11.69,84.41-27.82Z"/>
      <path class="cls-1" d="M1679.66,2324.33c-6.77-16.76-84.34,23.09-89.25,45.85-3.11,14.43,36.05,2.53,69.84-21.22,1.21-.89,2.41-1.79,3.59-2.72h0c.76-.6,18.67-14.87,15.83-21.91Z"/>
      <path class="cls-1" d="M1859.08,357.18h0c-21.05-20.78-53.41-38.99-62.02-30.44-11.87,11.79,43.73,76.21,75.26,76.97,13.58.33,14.6-14.6-7.19-40.15-1.2-1.34-3.22-3.59-6.05-6.39Z"/>
      <path class="cls-1" d="M1960.7,485.38c-15.76-20.37-48.24-44-63.27-34.68-22.32,13.84,27.48,87.34,64.99,95.9,8.97,2.05,38.3-.38,6.39-49.81-1.64-2.47-4.4-6.61-8.11-11.41Z"/>
      <path class="cls-1" d="M1552.89,2414.79c7.99-4.53,16.78-10.95,15.28-14.17-4.21-9.01-71.44,19.87-75.72,32.53-2.06,6.09,25.63-.74,55.7-15.81,1.59-.83,3.18-1.67,4.74-2.56Z"/>
      <path class="cls-1" d="M1739.63,244.77c-1.4-1.15-3.75-3.09-6.97-5.48-17.04-12.65-47.3-27.91-52.59-22.25-9.37,10.01,55.12,59.27,75.01,57.29,6.93-.69,8.54-9.13-15.44-29.56Z"/>
      <path class="cls-1" d="M1455.91,2454.25c-3.99-1.9-59.49,14.54-61.23,18.12,2.56.22,22.48-4.12,41.25-9.69,1.56-.48,3.13-.96,4.68-1.46,5.56-1.8,14.95-5.11,15.3-6.97Z"/>
      <path class="cls-1" d="M1550.8,130c-.91,9.47,58.2,39.56,68.34,38.11,3.56-.51,3.94-5.91-17.61-19.37-1.41-.83-2.82-1.66-4.24-2.46h0c-20.59-11.5-42.75-19.26-46.49-16.28Z"/>
      <path class="cls-1" d="M1464.9,83.42c-.16-1.72-5.98-4.98-17.31-9.67-1.49-.6-2.98-1.18-4.48-1.75-12.28-4.63-28.32-9.27-31.71-8.54-.05.08-.12.19-.16.27,3,4.88,50.64,22.36,53.66,19.69Z"/>
      <path class="cls-1" d="M2001.99,1067.38c-58.41-3.44-93.6,93.72-37.73,151.45,41.44,42.82,106.11,17.62,107.1-60.88-.08-2.2-.21-5.88-.93-11.03h0c-7.02-49.99-39.74-77.85-68.44-79.54Z"/>
      <path class="cls-1" d="M1568.57,1304.53c1.13,26.63,13.62,63.14,66.63,85.89-112.69,11.1-127.1,122.02-65.73,168.02,36.26,27.17,109.31,31.34,150.95-46,5.28,46.58,19.59,67.62,58.85,86.58-102.91,20.84-122.82,121.3-71.11,160.28,38.4,28.95,106.4,14.85,142.6-51.66-3.42,84.49,64.62,92.73,110.85,53.35,61.28-52.2,54.13-143.34-11.44-145.56-24.52-.83-60.45,10.36-92.39,68.38,1.18-38.63-5.14-60.52-44.25-80.35,41.13-15.74,56.51-21.63,80.39-63.79,16.48,100.41,99.75,81.15,133.66,29.21,13.94-21.36,17.1-41.09,18.63-50.57,6.6-67.93-33.16-84.5-46.24-89.94,42.7-12.21,65.78-43.59,68.62-93.29,4.17-80.24-65.26-114.17-111.06-72.7-19.4,17.55-27.6,42.1-31.55,53.9-7.6-58.91-32.33-70.7-66.56-87.01,96.44-19.47,81.23-126.67,29.88-161.38-59.98-40.54-123.89,17.18-113.5,81.47,9.2,56.97,53.17,73.07,67.61,78.36-116.32,29.86-106.88,138.57-35.56,182.35-41.8,12.75-56.96,25.56-81.1,68.54-4.11-44.5-23.2-69.04-65.86-84.71,111.69-15.87,102.58-122.43,64.09-157.64-60.45-55.29-159.84-11.89-156.41,68.28ZM1923.34,1343.4c6.95,47.09,19.81,66.54,55.07,83.26-1.48.36-3.46.85-4.93,1.23-34.85,9.18-49.7,25.99-69.81,60.19-6.89-42.31-18.16-55.36-48.51-73.12,38.73-14.65,54.04-30.7,68.18-71.56Z"/>
      <path class="cls-1" d="M1935.57,1867.99c1.03-2.45,2.59-6.15,3.97-11.19h0c11.38-41.6-9.44-57.44-18.93-62.33-56.22-28.95-144.09,52.23-122.1,112.81,17.87,49.24,101.43,34.35,137.06-39.29Z"/>
      <path class="cls-1" d="M2049.78,964.86c-11-37.79-43.78-72.99-79.59-66.49-47.67,8.65-57.89,97.43-3.48,141.35,42.15,34.03,93.74,8.01,86-61.41-.47-2.96-1.17-7.43-2.93-13.46Z"/>
      <path class="cls-1" d="M1853.56,1953.57c-43.88-26.53-134.43,41.3-122.66,91.88,10.5,45.1,89.23,34.11,128.75-31.07,1.44-2.65,2.81-5.15,4.36-8.94h0c9.36-22.86,5.45-42.25-10.46-51.87Z"/>
      <path class="cls-1" d="M1928.54,733.52c-43.93,14.69-28.83,99.82,23.07,130.13,34.49,20.14,76.15,3.48,60.82-59.95-.76-2.65-2.34-8.15-5.29-15h0c-14.16-32.94-51.58-64.21-78.6-55.18Z"/>
      <path class="cls-1" d="M1772.89,2144.84c1.91-2.76,3.71-5.36,5.84-9.33,12.26-22.86,2.34-34.7-2.49-38.74-32.67-27.25-122.22,27.12-118.29,71.81,3.38,38.48,73.8,30.54,114.94-23.74Z"/>
      <path class="cls-1" d="M1948.88,632.87c-19.34-34.28-56.32-58.14-77.59-50.05-32.68,12.43-10.96,89.86,42.22,114.53,33.42,15.5,58.52-6.69,40.18-54.71-1.27-2.9-2.48-5.63-4.81-9.77Z"/>
      <path class="cls-1" d="M1685.76,2221.36c-21.61-19.49-110.36,18.73-106.61,58.08,2.8,29.39,63.26,16.63,99.53-21.02,1.4-1.58,2.72-3.07,4.38-5.34,3.53-4.82,14.18-21.36,2.7-31.72Z"/>
      <path class="cls-1" d="M1856.44,542.5c25.3,7.64,39.5-11.56,19.18-46.87-1.43-2.38-3.59-5.97-7.78-11.99-14.06-20.19-52.94-49.73-71.33-38.66-24.63,14.82,18.5,85,59.93,97.52Z"/>
      <path class="cls-1" d="M1581.88,2349.49c1.19-1.04,3.18-2.77,5.25-4.95,7.81-8.2,9.99-15.75,5.96-20.71-15.16-18.7-88.39,13.3-93.28,40.76-3.71,20.81,45.54,15.16,82.07-15.09Z"/>
      <path class="cls-1" d="M1774.76,355.71c-21.25-22.89-56.17-43.42-67.66-34.59-17.32,13.32,35.75,74.16,68.42,78.43,24.08,3.15,19.92-17.55,3.77-38.62-.75-.92-2.31-2.83-4.54-5.22Z"/>
      <path class="cls-1" d="M1662.77,241.66c-.94-.84-2.7-2.41-5.23-4.43h0c-23.17-18.5-52.31-31.32-57.73-25.4-9.82,10.72,48.77,58.46,72.05,58.72,10.88.12,10.45-10.65-9.09-28.89Z"/>
      <path class="cls-1" d="M1497.42,2402.65c-7.42-12.75-70.94,10.35-76.37,27.77-4.34,13.93,36.29,5.33,61.87-10.21,1.94-1.23,4.59-2.9,8.87-6.05h0c2.71-1.99,7.88-7.65,5.64-11.51Z"/>
      <path class="cls-1" d="M1402.43,2457.54c-3.22-6.2-55.25,8.72-58.6,16.81-2.17,5.24,28.02-1.28,45.49-7.77.93-.36,2.2-.86,3.8-1.58,9.3-4.18,9.82-6.47,9.31-7.46Z"/>
      <path class="cls-1" d="M1272.59,2492.73l-.84.1c.28-.03.56-.07.84-.1Z"/>
      <path class="cls-1" d="M1286.97,2490.59c-7.53,1.2-10.82,1.71-14.37,2.14l28.93-3.47h.09s0-.01,0-.01c6.65-.89,7.13-1.19,7.6-1.48-2.71-.29-14.94,1.66-22.25,2.82Z"/>
      <path class="cls-1" d="M1481.17,124.54c-3.61,4.15,49.4,41.4,67.41,39.19,4.17-.51,3.28-6.29-16.89-19.62-1.17-.74-2.73-1.72-3.91-2.44-21.36-12.86-43.85-20.3-46.61-17.13Z"/>
      <path class="cls-1" d="M1404.49,79.52c.19-.81.63-2.7-16.98-10.39-1.14-.48-2.65-1.12-3.8-1.59-13.37-5.46-30.11-10.72-32.74-9.54-.03.11-.07.26-.1.37,1.94,3.34,48.2,23.04,53.62,21.14Z"/>
      <path class="cls-1" d="M1230.42,17.77c-1.23-.3-2.47-.58-3.7-.87h0c-10.44-2.41-14.88-3.07-15.4-3.02.44.26,10.79,3.1,30.04,7.18-2.15-.94-4.43-1.7-10.94-3.3Z"/>
      <path class="cls-1" d="M1767.5,1781.82c-63.23-28.28-155.09,43.07-134.65,104.58,20.34,61.2,125.36,53.98,161.8-27.99,1.32-3.52,2.56-6.84,3.65-11.91h0c7.34-34.25-11.1-55.87-30.8-64.68Z"/>
      <path class="cls-1" d="M1828.92,886.32c-54.84,3.38-74.23,91.27-16.13,139.08,46.37,38.16,109.38,15.33,104.52-55.77-.35-2.99-.89-7.51-2.54-13.64-6.88-25.5-33.67-72.89-85.85-69.67Z"/>
      <path class="cls-1" d="M1723.68,2007.16c1.18-2.43,3.14-6.5,4.67-11.64,6.43-21.7-.81-40.91-19.37-51.4-48.59-27.44-149.74,25.63-133.81,85.27,13.68,51.19,110.72,45.63,148.51-22.23Z"/>
      <path class="cls-1" d="M1797.79,721.99c-50.07,9.51-45.99,90.06,6.42,126.74,38.89,27.22,93.26,11.46,80.34-52.66-1.53-6.69-2.86-10.73-2.88-10.77-12.91-39.02-52.89-69.2-83.88-63.31Z"/>
      <path class="cls-1" d="M1635,2085.87c-47.09-24.05-132.79,26.99-120.66,71.86,10.99,40.66,95.04,35.49,130.93-19.19,3.11-5.07,4.46-8.06,4.52-8.19h0c12.55-27.86-8.15-41.1-14.79-44.49Z"/>
      <path class="cls-1" d="M1763.84,481.08h0c-21.22-33.22-58.94-55.34-77.63-45.51-27.81,14.62,6.7,80.75,50.59,96.92,28.52,10.51,48.66-7.1,30.89-44.74-.65-1.25-1.87-3.57-3.85-6.67Z"/>
      <path class="cls-1" d="M1831.33,626.58h0c-19.6-41.09-62.51-62.45-84.97-52.75-36.25,15.65-12.96,89.33,35.59,112.62,32.49,15.58,69.91.68,53.05-51.06-.84-2.23-1.99-5.3-3.67-8.8Z"/>
      <path class="cls-1" d="M1562.54,2253.37c1.04-1.43,2.48-3.39,3.72-5.61,1.76-3.14,9.88-19.35-2.74-30.43-31.79-27.89-117.75,8.72-113.54,48.36,3.71,34.93,75,33.1,112.56-12.32Z"/>
      <path class="cls-1" d="M1483.49,2319.63c-22.59-21.77-95.26,5.79-94.84,35.97.38,26.7,59.61,20.99,90.53-8.74.57-.61,1.64-1.76,2.81-3.3h0c7.36-9.74,7.86-17.79,1.49-23.93Z"/>
      <path class="cls-1" d="M1677.76,347.77c-22.11-26.01-55.07-41.86-66.56-36.59-22.37,10.26,21.61,70.24,58.09,79.23,24.55,6.05,30.47-10.87,12.93-36.94-.81-1.11-2.32-3.18-4.46-5.7h0Z"/>
      <path class="cls-1" d="M1399.49,2417.85c.83-.7,1.96-1.65,2.99-2.73h0c4.66-4.85,5.84-10.01,3.15-13.81-4.74-6.68-23.48-7.8-41.78-2.49-30.26,8.78-34.12,24.37-34.14,24.52-3.05,18.52,43.25,14.88,69.78-5.49Z"/>
      <path class="cls-1" d="M1572.85,229.64c-21.08-18.64-52.01-32.76-57.05-26.04-9.06,12.08,42.35,57.64,66.27,58.73,13.81.63,11.96-11.21-4.41-28.16-1.24-1.22-2.78-2.73-4.82-4.53Z"/>
      <path class="cls-1" d="M1274.9,2470.76c-3.98,9.48,28.62,7.07,49.13-3.62.69-.39,1.74-.99,2.68-1.64,1.23-.85,5.2-3.85,4.34-6.6-3.27-10.45-51.02-.37-56.15,11.86Z"/>
      <path class="cls-1" d="M1472.98,156.08c1.07-.15,9.78-1.91-11.92-17.67-1.96-1.38-4.64-3.28-10.31-6.99-13.78-9.02-36.86-18.3-40.12-15-6.23,6.3,49.13,41.51,62.35,39.66Z"/>
      <path class="cls-1" d="M1224.28,2495.78c.03.09.06.22.09.31,1.86.82,18.98-.58,29.08-2.65.9-.2,1.8-.4,2.69-.64,4.71-1.25,4.44-1.83,4.31-2.11-1.35-2.96-33.13,1.51-36.17,5.09Z"/>
      <path class="cls-1" d="M1342.73,72.29c1.26-.29,1.13-2.67-14.42-10.15-1.02-.48-2.05-.95-3.08-1.4-12.6-5.59-30.22-11.75-32.82-10.97-.02.08-.04.19-.06.27,3.16,4.64,45.53,23.35,50.38,22.25Z"/>
      <path class="cls-1" d="M1182.1,10.34l-.98-.25h0c-4.41-1.13-14.98-3.68-15.89-3.65.24.07,25.99,7.04,27.31,6.97-.69-.39-4.79-1.59-10.44-3.07Z"/>
      <path class="cls-1" d="M1489.6,1652.44c1.02-4.41,1.98-8.57,2.29-15.11,1.81-38.63-27.07-74.49-67.18-83.4-86.53-19.23-143.53,65.36-105.92,124.8,41.69,65.89,150.24,49.18,170.81-26.29Z"/>
      <path class="cls-1" d="M1678.75,1678.25c.79-3.21,1.82-7.51,2.29-10.79,4.12-28.6-7.46-67.55-53.64-83.24-78.24-26.58-160.75,53.85-126.13,122.95,36.44,72.71,150.89,54.07,177.48-28.92Z"/>
      <path class="cls-1" d="M1585.93,1763.39c-77.15-30.44-156.74,42.35-133.13,100.32,27.35,67.17,141.44,53.71,169.55-20l2.13-7.06h0c5.99-24.42-.52-58.25-38.54-73.25Z"/>
      <path class="cls-1" d="M1612.87,1171c40.76,54.48,141.8,51.86,150.78-39.72.07-2.89.19-7.72-.61-13.8-5.43-41.66-39.17-75.41-80.22-80.24-65.86-7.75-117.96,69.6-69.95,133.77Z"/>
      <path class="cls-1" d="M1632.32,997.31c43.1,44.89,126.84,38.04,126.6-42.42-.19-2.84-.5-7.59-1.78-13.61h0c-9.44-44.41-49.57-71.62-82.91-72.27-59.41-1.15-93.96,74.09-41.91,128.3Z"/>
      <path class="cls-1" d="M1558.98,1993.34c.91-2.18,2.28-5.47,3.24-10.05,6.63-31.4-11.5-48.21-27.88-56.77-58.56-30.63-147.04,22.22-131.49,78.54,15.55,56.3,120.84,58.92,156.13-11.72Z"/>
      <path class="cls-1" d="M1734.55,768.77c-13.43-40.96-54.78-66.01-83.5-62.87-49.67,5.43-64.56,77.29-11.23,120.69,39.86,32.44,104.45,22.2,97.8-45-.47-2.8-1.18-7.02-3.08-12.81Z"/>
      <path class="cls-1" d="M1491.95,2125.36c1.07-2.18,2.69-5.48,3.86-10.02,5.79-22.43-8.75-35.88-17.94-41.9-46.6-30.53-134.11,10.06-124.84,57.92,9.54,49.29,103.87,54.19,138.92-5.99Z"/>
      <path class="cls-1" d="M1616.46,557.53c-40.86,7.66-38.54,76.48,14.95,109.32,34.41,21.13,80.84,9.1,68.88-44.44-.72-2.49-1.4-4.84-2.91-8.46-14.72-35.37-52.53-61.73-80.92-56.41Z"/>
      <path class="cls-1" d="M1422.74,2242.33c.95-1.67,1.85-3.25,2.76-5.69h0c4.91-13.25,1.71-24.28-9.53-32.78-36.85-27.88-116.98,1.85-111.34,41.32,6.05,42.41,88.84,40.42,118.11-2.84Z"/>
      <path class="cls-1" d="M1568.37,421.27c-33.66,10.94-8.64,75.95,36.67,95.29,23.3,9.95,57.27,1.65,40.67-41.19-.9-2.12-2.58-6.07-5.66-11.63-12.43-22.44-48-50.17-71.68-42.47Z"/>
      <path class="cls-1" d="M1357.15,2336.66c.74-1.11,1.99-2.96,2.93-5.33,4.42-11.11-1.45-18.65-7.15-23.02-29.75-22.81-97.88.4-92.28,31.44,5.11,28.31,69.37,31.47,96.5-3.09Z"/>
      <path class="cls-1" d="M1506.57,299.23c-19.75,10.76,11.69,67.71,50.68,77.69,21.03,5.38,34-6.52,18.28-35.13-1.34-2.21-2.64-4.17-3.85-5.81-18.87-25.49-51.73-44.04-65.11-36.75Z"/>
      <path class="cls-1" d="M1295.67,2393.34c-17.48-17.69-75.27-4.18-74.5,17.42.8,22.35,52.96,22.59,74.42.33.48-.58,1.38-1.67,2.15-3.12h0c3.57-6.76.85-11.69-2.07-14.63Z"/>
      <path class="cls-1" d="M1482.61,218.26c-17.03-17.2-44.82-31.7-52.16-27.23-15.27,9.31,30.58,57.26,56.4,58.97,11.7.78,15.58-8.16.36-26.75-.75-.87-2.32-2.69-4.6-4.99Z"/>
      <path class="cls-1" d="M1242.82,2461.7c.97-1.3,2.35-3.89.66-6.58-8.06-12.86-53.04-6.59-55.32,7.71-1.83,11.48,35.73,14.25,53.12.52.52-.48,1.01-.94,1.54-1.65Z"/>
      <path class="cls-1" d="M1385.87,127.1c-.97-.78-1.94-1.55-2.94-2.29h0c-17.94-13.45-38.87-22.24-42-19.23-6.31,6.06,41.76,40.8,54.14,39.13,2.78-.38,6.56-4.27-9.2-17.6Z"/>
      <path class="cls-1" d="M1161.96,2493.13c-1.48,4.78,23.42,4.16,32.61.3.32-.16.64-.31.93-.53.54-.4,1.4-1.2,1.11-2-1.89-5.17-32.98-3.17-34.65,2.23Z"/>
      <path class="cls-1" d="M1239.07,40.17c1.41,2.89,40.41,24.09,43.38,21.1-.28-2.48-9.55-7.48-12.59-9.13-.6-.31-1.2-.63-1.8-.93-12.12-6.13-26.51-11.54-28.83-11.26-.05.07-.12.16-.17.22Z"/>
      <path class="cls-1" d="M1141.64,1.33c-.38-.11-.88-.25-1.26-.36-1.16-.33-2.32-.65-3.48-.97,4.43,1.3,8.82,2.76,13.29,3.93-.32-.13-1.87-.69-8.55-2.6Z"/>
      <path class="cls-1" d="M1432.47,1141.46c41.4,56.83,139.37,46.26,149.71-33.19.41-5.34.42-10.08.03-14.09-4.41-44.95-42.61-74.58-76.33-79.64-71.36-10.71-116.64,67.57-73.41,126.91Z"/>
      <path class="cls-1" d="M1564.09,1287.56c.37-2.85,1-7.62.78-13.67-1.2-32.56-22.62-70.98-67.76-83.43-81.11-22.36-136.64,62.94-101.23,123.53,40.06,68.53,149.04,64.05,168.21-26.42Z"/>
      <path class="cls-1" d="M1358.35,1494.32c39.76,68.07,150.7,64.11,174.41-25.77.6-3.29,1.61-8.78,1.62-15.77.07-45.35-34.14-75.01-65.96-83.38-92.87-24.43-143.41,67.86-110.08,124.92Z"/>
      <path class="cls-1" d="M1459.24,970.06c39.19,43.03,122.66,38.57,128.69-36.74.01-2.27.03-6.49-.8-12.04-1.77-11.82-14.37-70.89-89.22-73.12-47.05-1.4-86.93,68.92-38.68,121.9Z"/>
      <path class="cls-1" d="M1439.22,1818.17c.91-3.15,1.77-6.13,2.33-10.74,3.01-24.66-7.82-56.51-47.21-71.96-71.41-28.01-150.03,32.09-123.7,94.57,27.19,64.52,139.31,67.81,168.58-11.87Z"/>
      <path class="cls-1" d="M1383.77,1970c.73-2.12,2.09-6.07,2.99-11.51h0c4.03-24.6-12.79-49.47-40.91-60.47-66.9-26.18-141.46,26.35-115.62,81.47,27.38,58.39,129.26,52.1,153.54-9.49Z"/>
      <path class="cls-1" d="M1473.95,798.32c41.48,39.52,107.28,25.51,105.79-36.49-.19-2.26-.51-6.04-1.65-10.83-6.08-25.49-33.57-65.67-81.48-64.96-46.43.7-68.04,69.04-22.66,112.27Z"/>
      <path class="cls-1" d="M1328.29,2104.08c.69-1.81,1.83-4.84,2.47-8.72,3.97-24.17-13.64-41.41-31.45-49.48-60.47-27.43-125.48,17.89-109.6,61.43,17.54,48.07,111.68,54.76,138.57-3.22Z"/>
      <path class="cls-1" d="M1554.48,593.73c-11.8-35.39-48.21-57.66-73.51-55.52-44.2,3.74-47.41,67.18-5.13,101.3,30.19,24.36,87.99,23.14,81.17-35.67-.4-2.2-1.01-5.53-2.54-10.12Z"/>
      <path class="cls-1" d="M1272.9,2223.17c.62-1.5,1.67-4,2.28-7.23,4.49-23.55-19.49-36.13-26.95-39.42-45.93-20.29-107.37,10.49-93.92,47.06,14.23,38.67,94.65,45.49,118.58-.4Z"/>
      <path class="cls-1" d="M1448.05,403.55c-31.65,7.47-21.15,64.99,16.06,87.93,31.65,19.52,65.55,6.22,55.56-33.6-.49-1.58-1.32-4.23-2.85-7.61h0c-15.96-35.23-50.82-50.96-68.77-46.72Z"/>
      <path class="cls-1" d="M1223.51,2320.49c.52-1.16,1.31-2.9,1.76-5.35,2.01-10.86-4.98-21.61-18.22-28.07-35.02-17.06-91.28-.45-81.48,31.55,9.17,29.95,79.06,36.97,97.93,1.86Z"/>
      <path class="cls-1" d="M1404.4,283.25c-21.73,8.95-1.97,60.17,35.53,74.41,19.49,7.4,39.69-1.21,26.96-31.56-.8-1.69-1.55-3.28-3.01-5.73h0c-16.28-27.43-45.85-42.74-59.48-37.12Z"/>
      <path class="cls-1" d="M1171.15,2376.59c-28.93-17.34-72.55-2.63-67.8,16.95,5.19,21.38,61.94,29.63,76.94,4.37.94-1.93,1.3-3.27,1.44-4.06h0c1.13-6.57-2.43-12.38-10.58-17.26Z"/>
      <path class="cls-1" d="M1395.01,205.31h0c-16.02-20.02-40.11-32.19-47.86-27.75-11.1,6.37,14.7,50.06,43.91,55.98,10.71,2.17,18.98-5.17,6.65-24.59-.65-.92-1.53-2.18-2.7-3.64Z"/>
      <path class="cls-1" d="M1141.72,2443.18c-16.1-11.41-53.66-6.85-51.52,6.26,2.19,13.44,45.69,20.56,56.42,4.67.2-.42.48-1,.62-1.67.46-2.26-.75-5.87-5.52-9.25Z"/>
      <path class="cls-1" d="M1311.92,110.7h0c-14.18-12.39-31.63-20.73-34.31-17.91-4.38,4.61,29.67,38.77,43.39,37.46,3.29-.31,6.3-4.18-5.84-16.57-.94-.91-1.76-1.69-3.23-2.98Z"/>
      <path class="cls-1" d="M1120.23,2485.41c-10.41-6.76-35.08-4.96-34.03.66,1.03,5.48,30.74,10.05,35.92,2.91.13-.25.25-.48.26-.85.01-.32.05-1.3-2.15-2.72Z"/>
      <path class="cls-1" d="M1092.22,2499.49c.24.04.49.05.73.06l17.44.45c-3.87-.14-7.71-.55-11.58-.66-2.61-.07-6.38-.05-6.59.15Z"/>
      <path class="cls-1" d="M1228.94,48.44c-.06-.84-.16-2.1-9.83-8.12-1.04-.64-2.09-1.27-3.15-1.88h0c-8.03-4.68-18.74-9.85-20.53-9.5,0,.07-.03.16-.02.23.1.42,30.68,21.98,33.52,19.28Z"/>
      <path class="cls-1" d="M1336.51,1433.09c.54-2.71,1.54-7.76,1.57-14.48h0c.17-39.04-26.27-72.66-65.8-83.64-73.65-20.46-136.33,50.23-101.63,114.6,39.61,73.46,145.01,62.99,165.86-16.48Z"/>
      <path class="cls-1" d="M1215.81,1279.08c42.53,63.53,138.35,48.2,155.34-24.85.49-2.99,1.22-7.5,1.06-13.79-1.19-47.99-38.37-77.26-72.4-84.14-66.2-13.39-127.54,57.76-84.01,122.78Z"/>
      <path class="cls-1" d="M1293.93,1616.39c.64-2.84,1.6-7.12,1.79-13.13,1.29-40.68-25.89-74.92-67.63-85.2-75.15-18.51-134.44,51.39-97.6,115.07,38.74,66.98,141.09,56.49,163.44-16.74Z"/>
      <path class="cls-1" d="M1189.19,1696.25c-76.04-20.12-128.47,43.99-100.33,97.44,31.39,59.61,136.08,64.12,158.31-8.88.68-2.6,1.81-6.96,2.58-13.62h0c3.65-31.51-23.52-65.13-60.56-74.93Z"/>
      <path class="cls-1" d="M1287.16,931.61c33.49,44.2,115.87,44.95,125.22-27.46.22-3.36.56-8.44-.27-15.59-3.9-33.77-34.52-64.75-68.25-69.06-60.09-7.67-95.07,61.48-56.7,112.11Z"/>
      <path class="cls-1" d="M1256.05,1105.66c40.63,52.97,127.34,44.83,140.87-29.55.42-3.66.81-7.11.57-12.46h0c-1.88-42.4-38.59-74.13-71.52-79.22-69.09-10.67-112.88,65.25-69.93,121.23Z"/>
      <path class="cls-1" d="M1149.61,1861.61c-77.82-22.15-120.63,38.27-95.76,82.59,25.9,46.16,123.7,59.08,146.39-6.98.71-2.59,2.05-7.42,2.38-14.07,1.31-25.67-21.97-52.71-53.01-61.54Z"/>
      <path class="cls-1" d="M1311.85,761.89c30.96,38.31,101.36,37.18,105.49-26.99.01-2.19.03-6.28-.79-11.72h0c-.86-5.71-10.06-55.97-66.58-62.7-44.59-5.31-75.28,55.42-38.11,101.41Z"/>
      <path class="cls-1" d="M1155.03,2073.9c.52-1.82,1.49-5.22,1.73-9.77h0c1.31-24.35-19.9-43.68-40.17-51.34-62.17-23.48-113.74,16.94-95.89,59.01,18.55,43.71,110.86,62.74,134.32,2.09Z"/>
      <path class="cls-1" d="M1327.37,606.09c26.17,27.36,83.12,29.84,82.98-26.92-.15-2.02-.39-5.08-1.33-9.32-7.46-33.49-38.84-56.18-62.33-55.59-41.07,1.03-52.8,56.82-19.32,91.83Z"/>
      <path class="cls-1" d="M1113.52,2196.37c.41-1.48,1.04-3.7,1.11-7.16.68-31.56-38.82-44.22-43.32-45.56-46.93-13.95-90.1,14.7-73.32,48.66,19.33,39.12,98.68,48.95,115.53,4.06Z"/>
      <path class="cls-1" d="M1332.37,462.27c27.15,22.46,63.17,12.07,58.35-26.67-.29-1.64-.79-4.37-1.94-7.87-10.22-30.85-37.41-47.92-56.75-46.04-28.4,2.76-32.99,53,.35,80.57Z"/>
      <path class="cls-1" d="M1048.15,2257.92c-39.04-13.85-77.91,5.54-64.98,32.42,15.36,31.92,83.51,42.63,96.51,6.46.33-1.41.65-2.73.65-4.83,0-16.71-17.34-28.79-32.18-34.05Z"/>
      <path class="cls-1" d="M1307.95,263.72c-20.54,4.76-14.49,48.31,14.9,67.01,19.44,12.37,42.82,6.09,34.93-24.98-.41-1.28-.96-3.04-1.82-5.07h0c-9.31-22.1-33.09-40.41-48.01-36.95Z"/>
      <path class="cls-1" d="M1022.8,2349.06c-29.95-7.73-55,5.56-43.94,23.3,14.29,22.93,68.15,31.17,75.64,5.47.14-.86.32-1.93.24-3.26-.66-10.51-13.49-20.76-31.93-25.52Z"/>
      <path class="cls-1" d="M1271.02,160.63c-13.05,6.35,5.35,42.97,25.57,50.89,15.06,5.9,21.41-3.48,13.87-20.47-.46-.91-1.09-2.16-1.97-3.62-9.24-15.35-28.74-31.05-37.47-26.8Z"/>
      <path class="cls-1" d="M1039.94,2439.1c.02-.6.04-1.17-.21-2.08-2.66-9.75-21.38-16.34-30.34-17.55-19.87-2.69-32.7,4.44-25.41,14.12,10.74,14.27,52.95,21.19,55.96,5.51Z"/>
      <path class="cls-1" d="M1248.83,95.83c-9.06-10.41-23.5-20-26.19-17.39-3.81,3.7,14.98,31.77,29.46,33.91,4.14.61,6.56-3.48-1.37-14.21-.62-.78-1.25-1.56-1.9-2.31Z"/>
      <path class="cls-1" d="M1037.31,2479.52c-.08-.22-.19-.49-.43-.84h0c-3.87-5.4-21.57-9.94-31.1-9.07-5.25.48-9.24,2.32-4.67,6.06,8.35,6.83,37.17,11.26,36.2,3.85Z"/>
      <path class="cls-1" d="M1175.54,28.53c2.06,1.56,7.65,5.52,8.72,5.09.16-.06,1.35-.78-5.94-6.47-.61-.47-1.23-.94-1.86-1.39-6.19-4.53-13.39-8.89-14.45-8.97-.17.84,10.1,9.15,13.53,11.75Z"/>
      <path class="cls-1" d="M1046.95,2496.56c-4.57-1.07-17.71-2.83-18.99-2.04,0,.05.01.1.02.15,1.75,1.29,19.56,2.74,20.15,2.27-.16-.11-.34-.16-.52-.21-.22-.06-.44-.12-.66-.17Z"/>
      <path class="cls-1" d="M1034.65,1228.35c37.92,65.59,127.42,45.29,144.82-16.58.48-2.34,1.36-6.71,1.42-12.56.2-21.94-12.26-66.97-60.87-80.4-66.16-18.27-119.61,50.32-85.37,109.55Z"/>
      <path class="cls-1" d="M1080.72,1294.27c-67.69-20.46-124.52,43.15-93.56,104.72,34.5,68.59,131.71,61.94,152.97-10.46.48-2.25,1.29-6.03,1.56-10.92h0c1.28-23.72-10.12-67.97-60.97-83.34Z"/>
      <path class="cls-1" d="M943.33,1577.02c34.33,69.16,131.86,64.91,153.47-6.69.49-2.24,1.3-5.99,1.55-10.87,1.62-31.97-16.65-70.41-61.13-84.23-68.62-21.32-124.77,39.56-93.89,101.79Z"/>
      <path class="cls-1" d="M1053.62,1739.63c.51-2.3,1.36-6.14,1.54-11.17h0c1.34-38.02-31.21-68.06-62.52-77.02-67.05-19.19-119.09,40.57-84.37,96.88,33.24,53.91,125.71,57.78,145.35-8.68Z"/>
      <path class="cls-1" d="M1153.21,947.9c-63.01-12.89-108.13,56.29-72.06,110.48,33.21,49.89,116.45,45.24,132.16-22.06.54-3.11,1.05-6.04,1.19-10.62,1.29-40.04-30.81-71.56-61.29-77.8Z"/>
      <path class="cls-1" d="M1159.07,719.59c22.21,34.84,89.4,45.75,100.62-19.18.24-2.5.64-6.7.26-12.13-.13-1.91-3.75-46.92-48.97-58.21-50.84-12.69-77.99,48.61-51.92,89.51Z"/>
      <path class="cls-1" d="M1123.61,889.34c29.48,41.37,102.8,44.2,116.31-22.15.37-2.72.87-6.44.91-10.81h0c0-.61-.16-61.55-61.84-70.55-57.96-8.45-85.93,60.62-55.38,103.5Z"/>
      <path class="cls-1" d="M1011.95,1894.67c.71-3.32,1.45-6.74,1.6-11.36,1.07-32.92-31.71-58.9-63.09-66.62-62.61-15.41-99.92,34.97-76.05,78.26,28.46,51.61,122.55,61.01,137.54-.27Z"/>
      <path class="cls-1" d="M976.53,2034.82c.37-1.86,1.05-5.33.88-10.03-.74-20.85-19.23-47.56-58.07-56.91-52.63-12.67-89.92,23.48-66.49,64.47,23.08,40.39,109.22,58.5,123.68,2.46Z"/>
      <path class="cls-1" d="M1189.82,568.24c23.37,30.38,73.76,30.29,79.57-20.4.08-1.96.21-4.93-.22-9.08h0c-3.05-29.51-27.59-51.18-48.6-52.9-39.4-3.23-54.14,51.97-30.75,82.38Z"/>
      <path class="cls-1" d="M902.48,2107.44c-50.37-16.08-81.06,13.09-63.87,44.99,19.59,36.35,96.32,55.89,108.96,7.62.23-1.53.66-4.38.26-8.25-1.29-12.42-14.44-34.49-45.35-44.36Z"/>
      <path class="cls-1" d="M1210.8,427.63c20.14,22.03,56.21,20.45,57.63-20-.06-1.59-.15-4.26-.76-7.7h0c-5.08-28.66-27.78-43.98-42.22-44.03-28.58-.09-38.03,46.17-14.65,71.73Z"/>
      <path class="cls-1" d="M928.37,2265.01c.07-1.06.19-2.82-.22-5.15-3.11-17.75-27.14-35.83-52.47-39.48-34.57-4.98-53.49,14.36-36.8,37.63,21.75,30.33,83.57,40.47,89.49,7Z"/>
      <path class="cls-1" d="M1222.41,241.15c-21.49,1.16-23.06,40.22-2.36,58.86,17.2,15.49,38.94,8.46,36.42-18.66-.17-1.29-.43-3.24-1.15-5.97h0c-5.28-19.99-22.02-34.81-32.91-34.23Z"/>
      <path class="cls-1" d="M920.07,2351.23c-.04-.74-.11-1.86-.64-3.49-5.5-16.92-30.33-28.44-51.15-29.8-22.65-1.48-31.49,10.97-18.53,26.11,21.22,24.8,68.54,29.63,70.33,7.17Z"/>
      <path class="cls-1" d="M1205.78,141.42c-11.85,2.88-6.82,34.34,10.71,45.09,10.53,6.46,19.92.6,15.79-16.37-.22-.78-.58-2.07-1.25-3.82h0c-5.51-14.33-18.02-26.66-25.25-24.9Z"/>
      <path class="cls-1" d="M923.74,2417.4c-.16-.52-.45-1.49-1.26-2.82h0c-7.65-12.61-35.16-20.93-47.41-18.81-8.35,1.45-13.59,8.11.92,18.38,16.65,11.79,50.57,18.04,47.75,3.25Z"/>
      <path class="cls-1" d="M1179.45,63.05c-3.96,1.55,4.36,24.42,15.19,28.75,3.65,1.46,6.43-1.78,1.92-11.46-.38-.74-.76-1.47-1.18-2.18-5.12-8.77-13.01-16.25-15.94-15.11Z"/>
      <path class="cls-1" d="M940.7,2463.1c-9.18-7.69-32.5-13-36.15-9.42-2.98,2.92,10.79,11.3,27.97,13.88,4.55.68,12.33.85,9.25-3.42-.26-.3-.51-.58-1.07-1.04Z"/>
      <path class="cls-1" d="M1148.37,11.34c-2.19-2.3-6.26-6.22-6.74-6.44.39.97,10.34,12.88,11.48,12.57.06-.37-.55-1.56-3.77-5.1-.32-.35-.64-.69-.97-1.03Z"/>
      <path class="cls-1" d="M972.81,2488.26c-.19-.06-.45-.14-.65-.2h0c-5.2-1.52-16.25-3.68-17.57-3.07-.5,1.7,19.35,4,19.58,3.91-.08-.15-.13-.24-1.36-.65Z"/>
      <path class="cls-1" d="M763.93,1523.14c31.81,52.2,114.72,56.1,132.01-8.18.8-3.58,2.14-9.56,2.67-19.25,1.21-22.25-19.69-66.66-65.65-75.94-55.84-11.27-104.2,45.64-69.03,103.37Z"/>
      <path class="cls-1" d="M965.11,836.68c22.06,39.55,88.58,45.48,106.44-15.23.62-2.67,1.56-6.7,1.93-12.46h0c.03-.5,1.91-50.29-45.06-63.06-52.68-14.32-87.13,48.03-63.31,90.74Z"/>
      <path class="cls-1" d="M989.71,906.01c-54.45-21.14-106.11,40.22-78.97,93.79,25.5,50.32,101.13,51.69,121.42-11.94.54-2.25,1.45-6.01,1.78-10.91,2.43-36-21.22-62.01-44.23-70.94Z"/>
      <path class="cls-1" d="M857.26,1168.71c29.4,58.01,112,53.03,129.96-7.85.94-3.82,2.52-10.2,3.14-20.27,1.07-17.46-13.07-56.98-50.58-69.24-59.08-19.3-110.76,41.66-82.53,97.36Z"/>
      <path class="cls-1" d="M807.38,1341.92c29.05,55.94,115.83,59.9,134.72-9.03.78-3.24,2.1-8.67,2.48-15.16,1.62-27.5-17.56-63.23-56.32-75.27-55.81-17.34-112.67,38.24-80.88,99.45Z"/>
      <path class="cls-1" d="M856.18,1685.09c.4-2.01,1.07-5.37,1.19-9.8h0c.61-24.18-15.66-64.98-63.01-78.26-52.96-14.86-101.37,33.43-69.95,89.24,32.62,57.93,115.14,57.2,131.77-1.17Z"/>
      <path class="cls-1" d="M820.46,1842.67c.38-2.33.75-4.53.76-8.03.08-27.55-24.4-61.58-65.5-70.84-50.78-11.43-84.57,31.31-59.27,74.98,29.2,50.4,109.5,61.28,124.01,3.89Z"/>
      <path class="cls-1" d="M1104.17,453.47c-34.01-9.43-61.2,37.91-41.55,72.36,17.46,30.62,62.04,26.88,72.13-15.23.28-1.62.71-4.07.83-7.39.81-23.17-12.69-44.55-31.41-49.73Z"/>
      <path class="cls-1" d="M1016.21,673.1c21.17,39.48,77.07,37.8,90.63-14.19.43-2.13,1.01-5.04,1.27-8.45,2.16-28.03-15.72-50.86-34.26-56.73-46.15-14.62-78.26,40.92-57.64,79.37Z"/>
      <path class="cls-1" d="M792.39,1985.64c.21-1.98.49-4.7.32-7.94-1.59-29.17-32.12-53.53-60.71-60.22-47.6-11.14-75.15,24.88-49.14,64.24,23.02,34.84,98.07,58.47,109.53,3.92Z"/>
      <path class="cls-1" d="M775.3,2114.86c.05-1.25.12-3.33-.32-6.12-3.82-23.72-32.22-47.24-62.03-51.36-37.78-5.22-54.96,20.53-33.42,50.1,29.07,39.91,90.84,44.67,95.78,7.38Z"/>
      <path class="cls-1" d="M1154.29,374.3c.16-1.35.39-3.19.42-5.35.23-16.73-8.58-37.02-25.35-41.65-23.43-6.47-46.44,32.58-28.53,61.32,14.95,24,47.24,19.87,53.46-14.32Z"/>
      <path class="cls-1" d="M769.73,2224.17c-.11-1.25-.21-2.44-.74-4.33h0c-5.73-20.41-35.08-40.81-60.4-41.97-30.93-1.42-34.18,20.28-16.35,39.9,25.45,27.98,76.83,36.6,77.48,6.41Z"/>
      <path class="cls-1" d="M1164.46,252.73c.08-1.16.2-2.91.01-5.62-1.28-18.43-12.1-29.63-19.43-30.63-18.25-2.48-28.42,31.31-14.91,49.54,11.58,15.62,31.65,11.29,34.32-13.29Z"/>
      <path class="cls-1" d="M717.66,2281.14c-15.46,1.83-16.6,16,5.01,32.23,21.52,16.16,57.89,23.33,54.43,1.7-.26-.99-.51-1.93-1.23-3.43-7.98-16.87-38.45-32.83-58.22-30.5Z"/>
      <path class="cls-1" d="M1148.28,157.7c7.19,7.54,16.53,3.44,16.77-11.91-.02-.63-.05-1.57-.17-2.65-1.65-15.11-9.43-21.99-14.17-21.87-10.19.24-11.94,26.46-2.43,36.43Z"/>
      <path class="cls-1" d="M797.13,2385.6h0c-10.37-13.71-40.01-24.12-48.76-19.37-9.29,5.05,10.28,19.95,27.34,26.07,16.96,6.09,26.7,4.03,22.66-4.79-.29-.5-.65-1.13-1.25-1.91Z"/>
      <path class="cls-1" d="M1148.11,46.95c-.73.1-2.89,2.96-1.51,10.96,1.5,8.73,4.27,10.48,5.32,11.15,2.07,1.31,4.47-.81,3.4-8.08-.11-.62-.24-1.24-.39-1.85-1.74-7.02-5.16-12.4-6.82-12.18Z"/>
      <path class="cls-1" d="M834.06,2440.35h0c-10.58-7.43-29.45-12.38-31.3-10.01-3.59,4.61,24.94,14.78,31.73,14.68,2.14-.03,4.05-.68.98-3.58-.45-.39-.93-.75-1.41-1.09Z"/>
      <path class="cls-1" d="M697.21,1107.71c22.08,48.06,91.5,52.22,113.79-6.53.67-2.2,1.67-5.52,2.26-10.26,2.74-22.03-6.97-61.3-44.69-72.9-46.3-14.24-95.97,36.12-71.36,89.69Z"/>
      <path class="cls-1" d="M639.91,1275.38c23.38,51.8,97.21,58.76,118.96-2.84.59-2.17,1.58-5.8,2.05-10.57h0c.22-2.24,4.76-55.09-46.46-73.54-57.33-20.65-96.75,37.75-74.55,86.95Z"/>
      <path class="cls-1" d="M709.64,1450.09c.51-2.14,1.28-5.37,1.59-10.01h0c1.99-29.51-15.44-65.46-52.61-77.07-53.62-16.75-94.45,39.02-66.19,90.41,29.77,54.13,99.88,52.14,117.21-3.34Z"/>
      <path class="cls-1" d="M823.08,778.72c15.75,41.24,73.9,43.46,94.45-7.92.57-1.74,1.52-4.65,2.18-8.46,5.06-29.28-11.18-53.15-29.02-60.74-36.9-15.71-85.58,30.05-67.61,77.12Z"/>
      <path class="cls-1" d="M760.22,943.39c19.03,39.75,82.78,47.72,103.42-11.66.87-2.7,2.33-7.23,3.21-12.55,4.35-26.43-13.54-56.29-38.29-63.9-44.63-13.73-92.98,36.63-68.34,88.11Z"/>
      <path class="cls-1" d="M666.62,1622.71c.66-3.51,1.57-8.32,1.72-16.11.59-30.07-26.83-63.15-58.66-70.79-51.14-12.27-83.14,42.01-52.67,89.36,24.17,37.55,94.66,58.55,109.61-2.46Z"/>
      <path class="cls-1" d="M636.19,1782.43c.24-1.86.65-4.96.4-9.09-2.1-35.35-34.6-64.15-63.65-68.85-46.01-7.46-68.48,36.73-39.42,77.51,32.71,45.91,93.16,46.16,102.67.44Z"/>
      <path class="cls-1" d="M944.8,551.69c-36.5-11.24-71.66,37.38-53.75,74.32,15.62,32.22,61.01,30.69,78.06-13.22.54-1.63,1.43-4.37,2.08-7.94h0c3.73-20.6-5.98-46.87-26.39-53.16Z"/>
      <path class="cls-1" d="M615.82,1927.96c.09-1.59.23-4.25-.24-7.79-3.31-24.59-30.31-55.27-63.75-59.98-40.3-5.68-55.33,30.6-27.26,65.8,29.73,37.28,85.51,44.4,91.26,1.98Z"/>
      <path class="cls-1" d="M951.96,480.97c11.93,27.28,49.07,25.25,63.03-11.51.57-1.8,1.11-3.49,1.61-6.16h0c4.31-22.9-6.11-40.12-18.62-45.3-27.71-11.47-59.53,32.08-46.02,62.97Z"/>
      <path class="cls-1" d="M545.98,2004.45c-32.4-3.41-40.59,24.15-15.65,52.66,27.52,31.46,76.13,39.03,77.61,4.26-.07-1.33-.16-3.33-.9-6.24-6.06-23.8-35.16-47.95-61.06-50.68Z"/>
      <path class="cls-1" d="M613.8,2175.42c-.29-1.47-.82-4.2-2.46-8.3h0c-6.34-15.9-36.77-39.43-60.87-37.32-21.95,1.92-17.25,26.49,8.97,46.94,25.47,19.86,57.61,22.89,54.36-1.32Z"/>
      <path class="cls-1" d="M1009.7,350.71c9.14,17.37,34.35,17.56,45.03-12.9.4-1.32.95-3.14,1.39-5.27,2.68-12.98-.52-32.88-16-36.48-19.05-4.42-42.76,31.21-30.42,54.64Z"/>
      <path class="cls-1" d="M1087.96,221.86c.22-.78.49-1.74.73-2.92,2.37-11.83-.53-25.86-8.63-27.92-13.46-3.41-30.53,25.49-20.83,42.47,6.56,11.48,22.26,7.75,28.74-11.64Z"/>
      <path class="cls-1" d="M635.76,2271.9c-.23-.56-.65-1.6-1.5-3.05-9.46-15.99-39.26-34.21-54.52-30.02-14.96,4.11,1.12,25.37,23.59,37.66,20.98,11.47,36.74,9.24,32.43-4.59Z"/>
      <path class="cls-1" d="M1113.47,120.39c.19-.75.36-1.5.5-2.25h0c1.5-8.35-.4-16.03-4.23-17.13-7.17-2.05-15.25,18.85-10.81,27.96,2.65,5.43,10.43,5.55,14.54-8.58Z"/>
      <path class="cls-1" d="M670.74,2348.53c-10.04-11.12-35.72-23.6-41.55-18.39-6.32,5.64,21.76,24.4,37.8,27.34,1.15.21,11.08,1.81,5.32-7.02-.41-.55-.8-1.08-1.57-1.93Z"/>
      <path class="cls-1" d="M1129.93,41.66c.08-.42.19-.99.26-1.42.8-5,.25-7.73-.66-7.76-.82-.02-2.92,5.04-2.93,5.09-.52,2.39-1.25,7.77-.17,9.11.02.02,1.91,2.27,3.5-5.02Z"/>
      <path class="cls-1" d="M725.75,2411.48c-.3-.22-.69-.51-.99-.71h0c-7.6-5.18-21.53-10.21-22.33-8.59-1.28,2.6,19.36,12.86,24.54,12.2.8-.1,1.7-.61-1.21-2.9Z"/>
      <path class="cls-1" d="M531.41,1379.53c.81-3.11,1.92-7.37,3.08-15.53h0c2.22-15.59-10.55-57.11-45.37-66.78-42.43-11.79-79.34,35.7-51.71,85.52,20.98,37.82,78.18,49.47,94.01-3.2Z"/>
      <path class="cls-1" d="M621.85,876.25c13.23,40.13,65.95,44.01,88.97-4.72.65-1.66,1.49-3.87,2-5.58,7.19-23.92-2.84-52.4-21.91-62.2-35.62-18.3-85.01,24.11-69.06,72.49Z"/>
      <path class="cls-1" d="M613.13,960c-38.03-14.25-82.5,35.23-60.59,82.65,16.82,36.4,72.04,45.18,93.06-7.67,1.05-2.87,2.13-5.83,3.1-10.03.45-1.94,10.48-47.7-35.56-64.95Z"/>
      <path class="cls-1" d="M490.28,1209.81c19.38,37.46,75.81,48.61,95.1-6.7.86-2.68,2.29-7.16,3.24-12.68h0c3.43-19.86-9.27-55.15-36.97-65.27-42.38-15.48-87.47,34.19-61.37,84.64Z"/>
      <path class="cls-1" d="M490.62,1549.15c.36-2.09.86-4.95.99-8.38,1.37-35.93-25.93-65.32-52-71.94-38.14-9.69-67.85,34.51-41.3,80.54,26.55,46.04,80.9,45.91,92.31-.22Z"/>
      <path class="cls-1" d="M460.42,1711.45c.23-2.13.59-5.34.32-10.07h0c-1.2-21.26-23.01-56.24-54.46-62.66-35.54-7.26-57.17,32.32-28.45,72.94,26.61,37.63,75.54,44.07,82.58-.21Z"/>
      <path class="cls-1" d="M699.01,723c11.69,32.27,57.39,33.12,77.05-7.79,1.02-2.35,2.56-5.91,4.09-11.16,4.25-14.59,1.41-40.76-18.19-50.59-35.23-17.68-77.59,29.12-62.95,69.55Z"/>
      <path class="cls-1" d="M857.58,433.78c5.08,17.77,33.74,23.5,51.18-9.27.96-1.96,2.56-5.25,4.35-10.41,3.62-10.5,1.55-28.61-10.07-34.27-19.2-9.34-53.68,25.19-45.46,53.94Z"/>
      <path class="cls-1" d="M844.5,561.66c1.04-2.25,2.02-4.38,3.15-7.77,6.93-20.73-1.24-38.91-13.14-44.51-28.65-13.48-65.99,27.62-55.49,61.08,9,28.67,46.34,28.93,65.48-8.8Z"/>
      <path class="cls-1" d="M384.96,1796.53c-32.45-1.28-36.59,36-7.52,67.6,26.16,28.44,65.29,32.13,67.12-2.15.03-2.4.07-6.02-.8-12.63-2.57-19.58-30.52-51.71-58.79-52.82Z"/>
      <path class="cls-1" d="M445.56,1999.14c-.24-2-.6-5.03-2.04-10.37h0c-3.78-13.95-31.65-45.7-57.6-44.25-25.53,1.42-17.19,35.71,7.72,57.88,23.77,21.15,53.79,23.41,51.93-3.26Z"/>
      <path class="cls-1" d="M970.3,299.34c.42-.84.95-1.88,1.49-3.16,6.77-16.29,3.25-27.37-3.25-31.12-15.15-8.75-41.11,22.86-35.61,43.37,4.12,15.36,24.51,13.2,37.38-9.09Z"/>
      <path class="cls-1" d="M462.98,2117.42c-.31-1.06-.6-2.06-1.3-3.67-8.18-18.72-36.01-41.29-53.26-38.74-19.55,2.9-3.02,33.43,21.92,49.19,20.89,13.2,36.14,10.03,32.65-6.78Z"/>
      <path class="cls-1" d="M1026.35,188.78c.35-.65.81-1.53,1.12-2.2,2.93-6.27,5.51-17.49-.04-20.93-8.77-5.43-27.31,18.22-24.49,31.24,1.87,8.65,13.59,8.44,23.41-8.11Z"/>
      <path class="cls-1" d="M495.25,2217.64c-9.54-14.88-35.51-32.28-45.32-27.6-9.1,4.34,13.3,29.65,33.28,37.62,7.75,3.09,18.21,3.71,13.32-7.77-.32-.62-.69-1.32-1.29-2.25Z"/>
      <path class="cls-1" d="M1076.91,95.13c.31-.53.61-1.07.89-1.61h0c4.03-7.87,2.75-10.7,1.92-11.13-.81-.42-2.94-1.52-8.89,6.91-1.18,1.67-4.94,7.41-4.06,11.44.75,3.41,5.9,1.26,10.14-5.6Z"/>
      <path class="cls-1" d="M544.9,2303.49c-8.96-9.52-26.1-17.97-28.86-15.35-3.47,3.29,19.34,20.46,29.06,21.87,1.7.25,5.2.22.81-5.39-.3-.34-.69-.8-1-1.13Z"/>
      <path class="cls-1" d="M423.23,968.36c14.17,39.04,57.52,31.04,75.11-3.66.59-1.36,1.69-3.88,2.67-7.4h0c6.91-24.86-3.01-52.31-21.66-59.94-31.44-12.86-71.43,28.83-56.13,71Z"/>
      <path class="cls-1" d="M353.3,1130.4c14.11,35.21,58.72,40.64,77.15-1.44.56-1.53,1.49-4.1,2.19-7.52,4.74-22.91-3.01-52.89-26.72-63.3-32.37-14.22-70.35,28.02-52.62,72.27Z"/>
      <path class="cls-1" d="M295.57,1299.47c16.26,36.9,60.67,43.76,76.06.63.38-1.33,1.09-3.8,1.55-7.19,3.23-23.64-7.53-54.44-31.13-65.04-29.76-13.38-67.79,23.28-46.49,71.6Z"/>
      <path class="cls-1" d="M563.65,746.36c-32.06-20.02-70.9,28.03-60.95,62.7,8.13,28.32,47.23,37.38,69.92-3.84.98-1.97,2.8-5.63,4.64-10.9,4.72-13.59,2.62-37.82-13.61-47.95Z"/>
      <path class="cls-1" d="M285.52,1395.31c-37.32-5.82-48.82,44.08-26.62,78.04,16.92,25.88,56.16,41.24,67.54-4.99.46-2.36,1.14-5.94,1.44-11.28,1.31-23.88-18.99-58.12-42.35-61.76Z"/>
      <path class="cls-1" d="M237.49,1635.43c20.72,28.91,55.8,32.88,61.07-1.75.11-1.12.31-3.2.2-6.08h0c-1.18-29.3-24.69-57.5-43.38-61.33-33.35-6.83-40.04,38.26-17.89,69.16Z"/>
      <path class="cls-1" d="M287.49,1785.41c-.03-1.13-.07-3.03-.51-5.59-3.98-23.56-28.44-53.4-50.25-53.33-20.67.06-22.78,35.17,2.18,62.82,21.9,24.26,47.32,22.22,48.57-3.9Z"/>
      <path class="cls-1" d="M737.8,507.15c.77-1.29,1.83-3.05,2.81-5.14h0c6.03-12.86,6.66-31-2.84-37.89-14.23-10.31-33.44,6.46-33.63,6.63-.22.2-21.85,20.56-18.84,42.05,3.22,23.02,32.46,24,52.5-5.67Z"/>
      <path class="cls-1" d="M618.26,678.78c20.1-2.2,29.3-17.92,34.24-26.37,1.14-2.06,3.05-5.5,4.82-9.8h0c6.42-15.57,1.95-35.07-9.57-41.71-25.79-14.89-64.51,24.84-56.75,58.23,1.2,5.18,6.72,21.89,27.26,19.65Z"/>
      <path class="cls-1" d="M293.68,1925.66c-.26-1.53-.51-2.97-1.22-5.33-6.25-20.9-31.93-43.81-46.57-41.55-17.39,2.69-6.93,35.9,17.5,55.52,14.48,11.64,33.02,13.98,30.3-8.64Z"/>
      <path class="cls-1" d="M820.53,375.44c.67-1.01,1.6-2.4,2.52-4.04h0c7.37-13.11,7.35-25.73-.05-30.69-15.15-10.15-46.4,21.63-42.87,43.6,2.3,14.31,22.72,15.32,40.41-8.87Z"/>
      <path class="cls-1" d="M901.76,258.32c.6-.81,1.16-1.57,1.93-2.78,5.98-9.52,7.79-19.14,4.2-22.39-10-9.06-35.19,18.76-33.66,31.97,1.19,10.24,15.02,8.75,27.53-6.8Z"/>
      <path class="cls-1" d="M318.49,2047h0c-8.9-18.13-31.12-35.87-41-32.72-10.83,3.45,8.03,34.21,27.26,44.48,9.98,5.33,18.63,3.15,15.11-8.49-.22-.61-.62-1.76-1.37-3.27Z"/>
      <path class="cls-1" d="M980.52,155.52c.43-.51.86-1.02,1.26-1.55h0c5.31-6.92,5.59-11.21,4.21-12.78-3.88-4.42-21,11.59-20.81,19.47.16,6.51,8.37,2.59,15.34-5.14Z"/>
      <path class="cls-1" d="M361.51,2155.86c-7.37-11.09-23.97-22.25-28.03-20.22-5.31,2.65,12.27,23.88,26.11,28.54.81.27,7.78,2.4,2.87-6.79-.28-.47-.65-1.08-.95-1.53Z"/>
      <path class="cls-1" d="M545.33,587.25c1.4-2.04,3.51-5.13,6.5-10.66h0c3.27-6.06,6.23-24.06-2.9-31.39-16.88-13.55-52.33,20.17-48.02,45.68,2.96,17.48,24.94,23.01,44.42-3.62Z"/>
      <path class="cls-1" d="M453.07,731.75c.65-1.11,1.51-2.6,2.09-3.75,7.92-15.8,8.56-36.95-5.85-45.04-22.04-12.37-54.77,25.34-47.33,54.53,4.93,19.34,30.85,24.65,51.09-5.74Z"/>
      <path class="cls-1" d="M367.11,883.21c.93-1.84,2.1-4.13,3.07-6.65,6.1-15.78,3.14-37.82-12.28-45.92-26.07-13.69-53.89,27.98-45.76,57.51,4.55,16.5,32.33,37.03,54.96-4.94Z"/>
      <path class="cls-1" d="M235.44,1046.15c7.5,21.81,37.38,35.15,54.32-.94.85-2.07,1.9-4.66,2.88-8,10.86-36.95-15.11-50.34-16.22-50.89-25.67-12.76-52.48,26.38-40.98,59.83Z"/>
      <path class="cls-1" d="M227.98,1203.17h0c4.77-24.82-8.95-49.48-23.48-53.35-26.92-7.16-46.08,34.71-30.15,65.89,11.38,22.28,38.57,30.66,51.39-3.85.77-2.47,1.5-4.8,2.24-8.69Z"/>
      <path class="cls-1" d="M179.27,1377.63c.37-1.81.71-3.52.94-6.3,1.77-21.58-9.95-49.65-28.29-54.91-22.8-6.54-38.6,33.08-19.34,65.92,13.85,23.62,38.98,25.58,46.69-4.71Z"/>
      <path class="cls-1" d="M113.41,1549.95c12.36,15.39,33.24,20.84,36.55-6.03.19-2.19.43-4.91.41-10.8-.03-9.53-12.32-45.46-33.58-47.15-19.12-1.51-24.44,37.75-3.38,63.98Z"/>
      <path class="cls-1" d="M646.37,448.36c1-1.27,2.85-3.64,5.22-7.33h0c1.65-2.56,10.17-20.98-.43-27.16-6.07-3.54-18.25,1.21-27.73,10.81-15.48,15.68-13.42,30.69-13.39,30.83,2.21,7.46,16.72,16.56,36.32-7.15Z"/>
      <path class="cls-1" d="M141.76,1698.3c-.08-1.76-.21-4.41-1-9.42h0c-1.72-10.88-16.48-38.39-32.36-39.37-16.13-1-14.61,33.29,6.77,54.9,13.03,13.17,26.82,13.86,26.59-6.11Z"/>
      <path class="cls-1" d="M747.41,324.44c.85-.96,2.12-2.41,3.42-4.1h0c10.66-13.91,5.76-19.04,4.67-19.93-9.22-7.5-35.25,15.48-34.39,30.35.46,8,11.19,9.55,26.3-6.33Z"/>
      <path class="cls-1" d="M152.56,1838.78c-5.5-19.9-22.3-34.18-29.94-32.6-10.66,2.21,2.29,33.88,18.48,45.19.62.44,15.23,10.43,12.21-9.42-.21-.95-.49-2.23-.75-3.17Z"/>
      <path class="cls-1" d="M183.85,1966.31h0c-5.66-11.4-17.89-20.98-20.52-18.83-2.82,2.31,1.59,10.77,6.23,17.3,6.41,9.04,14.91,12.58,14.98,12.6,1.14.24,3.52-.02.85-7.61-.27-.68-.71-1.81-1.54-3.46Z"/>
      <path class="cls-1" d="M849.85,214.58c.52-.52,1.22-1.21,1.72-1.75,2.22-2.4,7.99-9.82,5.52-12.41-4.08-4.28-23.26,11.6-23.06,19.1.12,4.47,6.65,3.54,15.82-4.94Z"/>
      <path class="cls-1" d="M261.93,802.42c.43-.72,1.23-2.07,2.1-3.98h0c7.44-16.25,3.63-31.47-4.17-36.26-15.43-9.47-36.86,21.78-33.15,41.54,3.17,16.88,21.51,19.36,35.22-1.3Z"/>
      <path class="cls-1" d="M108.31,1119.02c.37-1.05.74-2.13,1.15-3.85,4.66-19.42-2.11-37.94-11.1-42.41-14.15-7.04-33.47,21.78-21.52,50.17,6.37,15.13,23.72,15.66,31.47-3.91Z"/>
      <path class="cls-1" d="M357.8,655.3c.75-1.06,1.45-2.06,2.4-3.68h0c8.08-13.75,6.04-26.79-.49-30.98-13.29-8.53-38,19.49-34.34,38.94,2.31,12.25,16.94,15.84,32.43-4.28Z"/>
      <path class="cls-1" d="M178.23,956.32c.41-.87.92-1.96,1.43-3.33h0c8.05-21.65-.22-35.94-7.74-40.27-17.22-9.9-34.73,22.93-28.81,44.62,4.93,18.08,23.2,20.88,35.13-1.02Z"/>
      <path class="cls-1" d="M462.19,518.1c1.33-1.6,2.7-3.26,5.7-7.48h0c2.52-3.54,6.71-17.02.23-21.09-10.55-6.63-34.27,17.05-32.13,32.07,1.15,8.04,11.97,12.83,26.2-3.5Z"/>
      <path class="cls-1" d="M42.42,1236.05c-14.53-4.27-22.32,29.19-11.42,49.04,9.66,17.59,22.16,12.18,26.87-4.41.28-1.27.54-2.48.77-4.47,2.39-21.23-7.84-37.7-16.22-40.16Z"/>
      <path class="cls-1" d="M9.43,1405.32c-11.08-.96-12.56,28.91.9,46.53.14.19,14.3,17.91,17.51-7.15.11-1.2.3-3.44.26-6.73-.21-16-10.7-31.96-18.67-32.65Z"/>
      <path class="cls-1" d="M578.35,387.39c.36-.37.96-.99,1.65-1.83h0c2.71-3.27,9.13-13.34,5.82-16.84-7.03-7.43-26.81,11.33-27.26,22.36-.26,6.42,10.31,5.56,19.79-3.69Z"/>
      <path class="cls-1" d="M4.47,1571.5c-8.39-.83-4.15,25.2,5.82,35.71,5.76,6.07,10.71,3.29,10.58-5.95-.04-.65-.09-1.29-.18-1.94-1.88-13.69-10.73-27.28-16.22-27.82Z"/>
      <path class="cls-1" d="M180.24,715.77c4.22-4.16,6.46-11.26,5.24-16.41-1.21-5.09-6.41-6.35-10.71-4.09-5.47,2.87-8.11,10.03-7.75,15.91.48,7.78,7.89,9.85,13.22,4.59Z"/>
      <path class="cls-1" d="M81.66,867.96c4.6,2.24,8.22-2.08,10.63-7.83,2.68-6.37,3.88-14.49,3.33-17.31-1.89-9.64-11.53-2.94-14.76,2-3.61,5.53-7.17,19.25.79,23.13Z"/>
      <path class="cls-1" d="M10.22,1024.09c2.88.04,5.83-3.03,7.4-5.66,1.73-2.9,2.73-6.25,3.03-9.61.41-4.73-1.55-14.6-8.33-13.41-1.64.29-3.04,1.44-3.98,2.82-4.05,5.91-6.2,17.02-1.96,23.4,1.16,1.74,2.49,2.44,3.84,2.46Z"/>
    </g>
  </g>
</svg>